<svg xmlns="http://www.w3.org/2000/svg" xmlns:xlink="http://www.w3.org/1999/xlink" viewBox="0,0,256,256" width="30px" height="30px"><g fill="#d71f1f" fill-rule="nonzero" stroke="none" stroke-width="1" stroke-linecap="butt" stroke-linejoin="miter" stroke-miterlimit="10" stroke-dasharray="" stroke-dashoffset="0" font-family="none" font-weight="none" font-size="none" text-anchor="none" style="mix-blend-mode: normal"><g transform="scale(5.12,5.12)"><path d="M25,3c-9.375,0 -17,7.625 -17,17c0,9.66406 15.58984,27.21875 16.25391,27.96094c0.1875,0.21094 0.46094,0.33203 0.74609,0.33203c0.28516,0 0.55469,-0.12109 0.74609,-0.33203c0.66016,-0.73828 16.25391,-18.23437 16.25391,-27.96094c0,-9.375 -7.625,-17 -17,-17zM16.93359,25.89063l-1.61328,1.18359c-1.51953,-2.07422 -2.32031,-4.51953 -2.32031,-7.07422c0,-2.55469 0.80078,-5 2.32031,-7.07422l1.61328,1.18359c-1.26562,1.72656 -1.93359,3.76563 -1.93359,5.89063c0,2.125 0.66797,4.16406 1.93359,5.89063zM25,23c-1.65625,0 -3,-1.34375 -3,-3c0,-1.65625 1.34375,-3 3,-3c1.65625,0 3,1.34375 3,3c0,1.65625 -1.34375,3 -3,3zM34.67969,27.07422l-1.61328,-1.18359c1.26563,-1.72656 1.93359,-3.76562 1.93359,-5.89062c0,-2.125 -0.66797,-4.16406 -1.93359,-5.89062l1.61328,-1.18359c1.51563,2.07422 2.32031,4.51953 2.32031,7.07422c0,2.55469 -0.80469,5 -2.32031,7.07422z"></path></g></g></svg>