<svg xmlns="http://www.w3.org/2000/svg" xmlns:xlink="http://www.w3.org/1999/xlink" viewBox="0,0,256,256" width="30px" height="30px"><g fill="#ff0000" fill-rule="nonzero" stroke="none" stroke-width="1" stroke-linecap="butt" stroke-linejoin="miter" stroke-miterlimit="10" stroke-dasharray="" stroke-dashoffset="0" font-family="none" font-weight="none" font-size="none" text-anchor="none" style="mix-blend-mode: normal"><g transform="scale(8.53333,8.53333)"><path d="M3,5c-0.552,0 -1,0.448 -1,1v16c0,0.466 0.32581,0.84017 0.75781,0.95117l6.24219,1.80273v-18.04492l-5.60547,-1.64258c-0.132,-0.042 -0.25453,-0.06641 -0.39453,-0.06641zM19,5.18555l-8,1.61328v17.99805l8,-1.59766zM21,5.25v18.04297l5.68164,1.64258c0.101,0.034 0.20536,0.06445 0.31836,0.06445c0.552,0 1,-0.448 1,-1v-16c0,-0.475 -0.34025,-0.82008 -0.78125,-0.95508z"></path></g></g></svg>