<svg xmlns="http://www.w3.org/2000/svg" xmlns:xlink="http://www.w3.org/1999/xlink" viewBox="0,0,256,256" width="30px" height="30px"><g fill="#ffffff" fill-rule="nonzero" stroke="none" stroke-width="1" stroke-linecap="butt" stroke-linejoin="miter" stroke-miterlimit="10" stroke-dasharray="" stroke-dashoffset="0" font-family="none" font-weight="none" font-size="none" text-anchor="none" style="mix-blend-mode: normal"><g transform="scale(8.53333,8.53333)"><path d="M23,3c-0.04244,-0.00009 -0.08484,0.00252 -0.12695,0.00781l-0.02148,0.00391c-0.00978,0.00116 -0.01955,0.00246 -0.0293,0.00391l-12.96484,1.99414c-0.4923,0.07092 -0.85765,0.49286 -0.85742,0.99023v13.21094c0,1.189 -0.13609,1.78906 -2.49609,1.78906c-2.606,0 -3.50391,1.52081 -3.50391,3.00781c0,1.209 0.706,3 3.5,3c3.129,0 4.5,-1.91723 4.5,-3.61523v-12.95312l11,-1.79297v8.56445c0,1.189 -0.13609,1.79102 -2.49609,1.79102c-2.606,-0.001 -3.50391,1.51886 -3.50391,3.00586c0,1.209 0.706,3 3.5,3c3.129,0 4.5,-2.10669 4.5,-3.80469v-17.20312c0,-0.55228 -0.44772,-1 -1,-1z"></path></g></g></svg>