<svg xmlns="http://www.w3.org/2000/svg" xmlns:xlink="http://www.w3.org/1999/xlink" viewBox="0,0,256,256" width="30px" height="30px"><g transform="translate(-8.96,-8.96) scale(1.07,1.07)"><g fill="#ff0000" fill-rule="nonzero" stroke="none" stroke-width="1" stroke-linecap="butt" stroke-linejoin="miter" stroke-miterlimit="10" stroke-dasharray="" stroke-dashoffset="0" font-family="none" font-weight="none" font-size="none" text-anchor="none" style="mix-blend-mode: normal"><g transform="translate(-16,-8) scale(4,4)"><path d="M17,12c-3.309,0 -6,2.691 -6,6v4.30469c1.593,-1.429 3.692,-2.30469 6,-2.30469h30c2.308,0 4.407,0.87569 6,2.30469v-4.30469c0,-3.309 -2.691,-6 -6,-6zM17,23c-3.31,0 -6,2.69 -6,6v17c0,3.31 2.69,6 6,6h23c0,-7.17 5.83,-13 13,-13v-10c0,-3.31 -2.69,-6 -6,-6zM32.00195,29.00195c0.34338,0 0.68694,0.18836 0.83594,0.56836l1.64453,4.20898l4.51172,0.26563c0.815,0.047 1.14663,1.07184 0.51563,1.58984l-3.49414,2.86523l1.14258,4.37305c0.206,0.79 -0.66356,1.42242 -1.35156,0.98242l-3.80664,-2.4375l-3.80273,2.4375c-0.688,0.441 -1.55756,-0.19242 -1.35156,-0.98242l1.14063,-4.37305l-3.49414,-2.86523c-0.632,-0.518 -0.29742,-1.54184 0.51758,-1.58984l4.50977,-0.26562l1.64648,-4.20898c0.1485,-0.38 0.49256,-0.56836 0.83594,-0.56836zM53,42c-5.523,0 -10,4.477 -10,10c0,5.523 4.477,10 10,10c5.523,0 10,-4.477 10,-10c0,-5.523 -4.477,-10 -10,-10zM57.24805,47.65039c0.11644,0.02055 0.23214,0.06261 0.33789,0.13086c0.422,0.273 0.54058,0.83681 0.26758,1.25781l-5.06641,7.81836c-0.155,0.239 -0.44951,0.41602 -0.72852,0.41602c-0.261,0 -0.5428,-0.11159 -0.7168,-0.30859l-3.11523,-3.54102c-0.332,-0.377 -0.29497,-0.9512 0.08203,-1.2832c0.377,-0.332 0.9512,-0.29497 1.2832,0.08203l2.32227,2.64063l4.41211,-6.8125c0.20475,-0.3165 0.57256,-0.46203 0.92188,-0.40039z"></path></g></g></g></svg>