<svg xmlns="http://www.w3.org/2000/svg"  viewBox="0 0 64 64" width="30px" height="30px"><path d="M 14 3 C 7.383 3 2 8.383 2 15 C 2 21.617 7.383 27 14 27 C 14.513 27 15.021438 26.959484 15.523438 26.896484 L 11.882812 22.707031 C 8.4978125 21.775031 6 18.677 6 15 C 6 10.589 9.589 7 14 7 C 17.350062 7 20.222471 9.0718198 21.412109 12 L 15 12 C 13.061 12 11 13.402 11 16 L 11 16.744141 L 30 38.744141 L 30 49 C 30 54 20 51 20 57 L 44 57 C 44 51 34 54 34 49 L 34 38.744141 L 53 16.744141 L 53 16 C 53 13.402 50.939 12 49 12 L 25.605469 12 C 24.268236 6.8326199 19.579627 3 14 3 z M 48.357422 15.998047 L 43.173828 22 L 25 22 L 29.908203 32.517578 L 15.642578 16 L 48.357422 15.998047 z"/></svg>