<svg xmlns="http://www.w3.org/2000/svg"  viewBox="0 0 24 24" width="30px" height="30px"><path d="M 8 2 A 1.0001 1.0001 0 0 0 7.0449219 2.7050781 C 6.3250855 5.0347491 6 7.0176222 6 9 C 6 11.960171 8.1717924 14.427884 11 14.908203 L 11 20 L 10 20 A 1.0001 1.0001 0 1 0 10 22 L 11.832031 22 A 1.0001 1.0001 0 0 0 12.158203 22 L 14 22 A 1.0001 1.0001 0 1 0 14 20 L 13 20 L 13 14.908203 C 15.828207 14.427884 18 11.960171 18 9 C 18 7.2402755 17.625145 5.0457307 16.960938 2.7246094 A 1.0001 1.0001 0 0 0 16 2 L 8 2 z M 8.8378906 4 L 15.160156 4 C 15.335517 4.6834559 15.483959 5.351445 15.615234 6 L 8.3535156 6 C 8.4869481 5.3558988 8.6442703 4.6967534 8.8378906 4 z"/></svg>