<?xml version="1.0"?><svg xmlns="http://www.w3.org/2000/svg"  viewBox="0 0 50 50" width="30px" height="30px">    <path d="M25.998,43c-0.553,0-1-0.448-1-1s0.447-1,1-1h8.012v-1c0-1.711,0.103-5.771,0.492-8.886c0.161-1.29,0.48-2.875,0.85-4.709 C36.086,22.759,37,18.222,37,14.023c0.102-4.486-0.835-10.45-1.037-11.01C35.742,2.407,35.158,2,34.51,2H15.498 c-0.648,0-1.232,0.407-1.454,1.016C13.843,3.573,12.906,9.537,13.008,14c0,4.222,0.914,8.759,1.648,12.405 c0.369,1.835,0.688,3.42,0.85,4.709c0.39,3.115,0.492,7.174,0.492,8.886v1h4c0.553,0,1,0.448,1,1s-0.447,1-1,1h-4v3 c0,1.103,0.897,2,2,2H32.01c1.103,0,2-0.897,2-2v-3H25.998z M15.318,8c0.195-1.84,0.43-3.359,0.546-4h18.277 c0.122,0.672,0.355,2.181,0.548,4H15.318z"/></svg>