<svg xmlns="http://www.w3.org/2000/svg" xmlns:xlink="http://www.w3.org/1999/xlink" viewBox="0,0,256,256" width="30px" height="30px"><g fill="#ffffff" fill-rule="nonzero" stroke="none" stroke-width="1" stroke-linecap="butt" stroke-linejoin="miter" stroke-miterlimit="10" stroke-dasharray="" stroke-dashoffset="0" font-family="none" font-weight="none" font-size="none" text-anchor="none" style="mix-blend-mode: normal"><g transform="scale(5.12,5.12)"><path d="M20,2v2c0,1.654 1.346,3 3,3h1v9.0332c-0.00325,0.00021 -0.00652,-0.00021 -0.00977,0c-0.12131,0.00773 -0.24078,0.02273 -0.36133,0.0332c-0.21769,0.01896 -0.43535,0.03867 -0.65039,0.06641c-0.14867,0.01914 -0.29601,0.04315 -0.44336,0.06641c-0.17663,0.0279 -0.35271,0.05812 -0.52734,0.0918c-0.1559,0.03006 -0.31059,0.06306 -0.46484,0.09766c-0.17779,0.03985 -0.35382,0.08319 -0.5293,0.12891c-0.13061,0.03408 -0.26132,0.06622 -0.39062,0.10352c-0.24111,0.06938 -0.47856,0.14642 -0.71484,0.22656c-0.0674,0.02294 -0.13612,0.04259 -0.20312,0.06641c-0.08665,0.03068 -0.1699,0.06751 -0.25586,0.09961c-0.42919,0.16092 -0.85052,0.33958 -1.26172,0.53516c-0.07018,0.03318 -0.14523,0.05767 -0.21484,0.0918c-0.03151,0.01595 -0.06215,0.03355 -0.0918,0.05273c-0.32614,0.16354 -0.64565,0.33522 -0.95898,0.51953c1.239,1.664 3.33516,4.57755 3.41016,4.68555c0.685,0.984 0.66797,1.75356 0.66797,2.10156c0,0.337 -0.08477,0.67733 -0.25977,0.98633c-0.033,0.058 -0.60255,1.06102 -1.18555,2.04102c0.579,0.947 1.14083,1.90884 1.17383,1.96484c0.454,0.779 0.33027,1.76716 -0.30273,2.41016c-0.386,0.393 -0.90373,0.59766 -1.42773,0.59766c-0.334,0 -0.66956,-0.08486 -0.97656,-0.25586c-0.057,-0.032 -1.05148,-0.59011 -2.02148,-1.16211c-0.97,0.572 -1.96448,1.13011 -2.02148,1.16211c-0.307,0.172 -0.64256,0.25586 -0.97656,0.25586c-0.523,0 -1.04173,-0.20466 -1.42773,-0.59766c-0.30516,-0.31047 -0.48842,-0.7026 -0.54883,-1.11133c-0.00288,-0.02619 -0.00679,-0.05225 -0.01172,-0.07812c-0.04453,-0.4137 0.03704,-0.8419 0.25781,-1.2207c0.033,-0.056 0.59483,-1.01784 1.17383,-1.96484c-0.34,-0.571 -1.1932,-2.05689 -1.7832,-3.08789c-1.054,2.133 -1.66211,4.52455 -1.66211,7.06055c0,0.55138 0.0273,1.09563 0.08203,1.63281c0.00007,0.00064 -0.00007,0.00131 0,0.00195c0.10952,1.07368 0.32671,2.11642 0.63867,3.11719c0.00019,0.0006 -0.00019,0.00135 0,0.00195c0.31208,1.00073 0.71995,1.95901 1.21289,2.86523c0.00028,0.00051 -0.00028,0.00144 0,0.00195c0.24639,0.45286 0.51522,0.89315 0.80273,1.31836c0.00031,0.00046 -0.00031,0.00149 0,0.00195c0.86332,1.2765 1.9064,2.42169 3.0918,3.40039c0.39524,0.3263 0.80481,0.6341 1.23047,0.92188c0.00043,0.00029 0.00152,-0.00029 0.00195,0c0.42523,0.28742 0.86546,0.55644 1.31836,0.80273c0.45384,0.24693 0.91954,0.47091 1.39844,0.67383c0.47841,0.20265 0.96801,0.38303 1.46875,0.53906c0.50125,0.15631 1.01231,0.28765 1.5332,0.39453c0.52037,0.10672 1.04864,0.18943 1.58594,0.24414c0.53781,0.05486 1.08273,0.08203 1.63477,0.08203c2.23247,0 4.36133,-0.46137 6.29297,-1.28906c0.3389,-0.13356 0.57838,-0.44083 0.62513,-0.80209c0.04675,-0.36126 -0.10661,-0.71936 -0.40035,-0.9348c-0.29373,-0.21544 -0.68137,-0.25413 -1.0119,-0.101c-1.00267,0.42963 -2.06938,0.72963 -3.17578,0.91602c0.16069,-1.48693 0.30465,-3.09005 0.41016,-4.85937c1.576,-0.08 3.07539,-0.24312 4.52539,-0.45313c-0.484,-0.656 -0.84091,-1.14136 -0.87891,-1.19336c-0.583,-0.796 -0.49878,-1.8977 0.19922,-2.5957c0.387,-0.387 0.90102,-0.58594 1.41602,-0.58594c0.277,0 0.54664,0.07831 0.80664,0.19531c0.042,-0.518 0.09409,-1.02464 0.12109,-1.55664c-1.55809,0.09215 -3.23183,0.15701 -4.96289,0.20117c0.01768,-0.96649 0.0332,-1.93985 0.0332,-2.94141c0,-1.01167 -0.02706,-1.96564 -0.04492,-2.94141c1.73534,0.04414 3.41297,0.10882 4.97461,0.20117c-0.1,-1.96 -0.29961,-3.82984 -0.59961,-5.58984c-1.76,-0.3 -3.62984,-0.49961 -5.58984,-0.59961c-0.10556,-1.77008 -0.24938,-3.3739 -0.41016,-4.86133c1.91411,0.32023 3.69411,1.02171 5.25977,2.0332c0.28112,1.08921 0.53739,2.21769 0.74023,3.42773c1.21005,0.20284 2.33852,0.45912 3.42773,0.74023c1.01149,1.56565 1.71298,3.34565 2.0332,5.25977c-1.48743,-0.16078 -3.09125,-0.3046 -4.86133,-0.41016c0.05,0.9 0.07031,1.81023 0.07031,2.74023c0,0.93 -0.02031,1.84023 -0.07031,2.74023c1.77008,-0.10556 3.3739,-0.24938 4.86133,-0.41016c-0.15102,0.87182 -0.37564,1.71909 -0.67773,2.5332c-0.13295,0.33696 -0.07331,0.71947 0.15592,0.99995c0.22923,0.28048 0.59221,0.41509 0.94889,0.35188c0.35668,-0.06321 0.6513,-0.31434 0.77019,-0.65651c0.64111,-1.72769 1.01172,-3.59789 1.01172,-5.55859c0,-0.55138 -0.0273,-1.09758 -0.08203,-1.63477c-0.05471,-0.5373 -0.13742,-1.06557 -0.24414,-1.58594c-0.10675,-0.52028 -0.23846,-1.03252 -0.39453,-1.5332c-0.15603,-0.50074 -0.33642,-0.99034 -0.53906,-1.46875c-0.20269,-0.47838 -0.42721,-0.94506 -0.67383,-1.39844c-0.2463,-0.4529 -0.51531,-0.89313 -0.80273,-1.31836v-0.00195c-0.28778,-0.42566 -0.59558,-0.83523 -0.92187,-1.23047c-0.9787,-1.1854 -2.12389,-2.22848 -3.40039,-3.0918h-0.00195c-0.42521,-0.28752 -0.8655,-0.55634 -1.31836,-0.80273h-0.00195c-0.90623,-0.49294 -1.8645,-0.90081 -2.86523,-1.21289h-0.00195c-1.00077,-0.31196 -2.04351,-0.52915 -3.11719,-0.63867h-0.00195c-0.20818,-0.02121 -0.42238,-0.01814 -0.63281,-0.03125v-9.05078h1c1.654,0 3,-1.346 3,-3v-2zM8,13c0,0 2.5625,3.49622 3.6875,4.94922c-1.125,1.453 -3.6875,4.94922 -3.6875,4.94922c0,0 3.49622,-2.56259 4.94922,-3.68359c1.453,1.121 4.95313,3.68359 4.95313,3.68359c0,0 -2.5655,-3.49622 -3.6875,-4.94922c1.122,-1.453 3.6875,-4.94922 3.6875,-4.94922c0,0 -3.50012,2.56259 -4.95312,3.68359c-1.453,-1.121 -4.94922,-3.68359 -4.94922,-3.68359zM13,25c0,0 1.09788,1.93797 1.79688,3.04297c-0.699,1.074 -1.79687,2.95703 -1.79687,2.95703c0,0 1.91,-1.06991 3,-1.75391c0.545,0.342 1.29445,0.77981 1.9082,1.13281c0.61375,0.353 1.0918,0.62109 1.0918,0.62109c0,0 -0.27484,-0.47117 -0.63672,-1.07617c-0.36188,-0.605 -0.81066,-1.34386 -1.16016,-1.88086c0.699,-1.105 1.79688,-3.04297 1.79688,-3.04297c0,0 -1.91,1.12484 -3,1.83984c-1.09,-0.715 -3,-1.83984 -3,-1.83984zM25,29c0.66404,0 1.30638,0.01089 1.95313,0.01953c0.01886,0.98748 0.04688,1.95461 0.04688,2.98047c0,1.01512 -0.01482,2.00216 -0.0332,2.98047c-0.65115,0.00877 -1.29811,0.01953 -1.9668,0.01953c-1.01,0 -2.0007,-0.0093 -2.9707,-0.0293c0.04,2.1 0.12047,4.09898 0.23047,5.95898c-1.96,-0.1 -3.82984,-0.29961 -5.58984,-0.59961c-0.3,-1.76 -0.49961,-3.62984 -0.59961,-5.58984c1.86,0.11 3.85898,0.19047 5.95898,0.23047c-0.02,-0.97 -0.0293,-1.9607 -0.0293,-2.9707c0,-1.01 0.0093,-2.0007 0.0293,-2.9707c0.97,-0.02 1.9607,-0.0293 2.9707,-0.0293zM33,38.10156c0,0 2.5625,3.49622 3.6875,4.94922c-1.125,1.453 -3.6875,4.94922 -3.6875,4.94922c0,0 3.49622,-2.56259 4.94922,-3.68359c1.453,1.122 4.95313,3.68359 4.95313,3.68359c0,0 -2.5655,-3.49622 -3.6875,-4.94922c1.121,-1.453 3.6875,-4.94922 3.6875,-4.94922c0,0 -3.50012,2.56259 -4.95312,3.68359c-1.453,-1.122 -4.94922,-3.68359 -4.94922,-3.68359z"></path></g></g></svg>