<svg xmlns="http://www.w3.org/2000/svg" xmlns:xlink="http://www.w3.org/1999/xlink" viewBox="0,0,256,256" width="30px" height="30px"><g fill="#ffffff" fill-rule="nonzero" stroke="none" stroke-width="1" stroke-linecap="butt" stroke-linejoin="miter" stroke-miterlimit="10" stroke-dasharray="" stroke-dashoffset="0" font-family="none" font-weight="none" font-size="none" text-anchor="none" style="mix-blend-mode: normal"><g transform="scale(8.53333,8.53333)"><path d="M19.5,0.99414c-0.276,0 -0.5,0.224 -0.5,0.5v2.5l-1.66406,2.49609c-0.219,0.328 -0.33594,0.71437 -0.33594,1.10938v5.39453h-5v-1.64062c-0.1605,0.0415 -0.32373,0.07669 -0.49023,0.10156c0.1665,-0.025 0.32973,-0.06151 0.49023,-0.10352c1.56339,-0.40484 2.74154,-1.72331 2.94922,-3.35742h0.05078v-0.5v-1.5c0,-1.103 -0.897,-2 -2,-2h-4c-1.103,0 -2,0.897 -2,2v1.5v0.5h0.05078c0.206,1.635 1.38522,2.95438 2.94922,3.35938v1.64063h-5c-0.552,0 -1,0.448 -1,1c0,0.552 0.448,1 1,1h20c0.552,0 1,-0.448 1,-1c0,-0.552 -0.448,-1 -1,-1h-2v-5.39453c0,-0.395 -0.11694,-0.78138 -0.33594,-1.10937l-1.66406,-2.49609v-2.5c0,-0.276 -0.224,-0.5 -0.5,-0.5zM9,5.99414h4v1.5h-4zM6,17.06445v10.92969l7.19922,-0.01953l0.76172,-3.79102c-0.59,-0.54 -0.96094,-1.31945 -0.96094,-2.18945c0,-0.83 0.34086,-1.58109 0.88086,-2.12109c0.54,-0.54 1.28914,-0.87891 2.11914,-0.87891h7c0.35,0 0.69,0.05969 1,0.17969v-2.10937zM15.94922,20.99414c-0.53,0 -0.94922,0.41922 -0.94922,0.94922v0.10156c0,0.5 0.39086,0.89945 0.88086,0.93945l-0.11133,1.00977l-0.10937,0.98047l-0.33008,2.99023l-0.10937,1.0293l-0.12109,1.07031h2.00977l0.12109,-1.07031l0.10938,-1.04102l0.10938,-0.95898h4.10156l0.09961,0.94922l0.11914,1.05078l0.12109,1.07031h2.00977l-0.12109,-1.07031l-0.10937,-1.06055l-0.33008,-2.95898l-0.10937,-0.98047l-0.11133,-1.00977c0.49,-0.04 0.88086,-0.43945 0.88086,-0.93945v-0.10156c0,-0.53 -0.41922,-0.94922 -0.94922,-0.94922zM17.90039,22.99414h3.19922l0.12109,1l0.10938,1h-3.66016l0.11914,-1z"></path></g></g></svg>